<?xml version="1.0" encoding="utf-8"?>
<!-- Generator: Adobe Illustrator 24.1.1, SVG Export Plug-In . SVG Version: 6.00 Build 0)  -->
<svg version="1.1" id="Camada_1" xmlns="http://www.w3.org/2000/svg" xmlns:xlink="http://www.w3.org/1999/xlink" x="0px" y="0px"
	 viewBox="0 0 59.4 54.9" style="enable-background:new 0 0 59.4 54.9;" xml:space="preserve">
<g id="package" transform="translate(0.503 -19.255)">
	<g id="Grupo_790" transform="translate(0 19.762)">
		<g id="Grupo_789" transform="translate(0 0)">
			<g id="Caminho_122">
				<path d="M57.9,18.1L51,13.4l6.2-3.7c0.5-0.3,0.7-1,0.4-1.6c-0.1-0.2-0.3-0.4-0.5-0.5L38.6,0.1c-0.3-0.1-0.7-0.1-1,0l-8.4,4.3
					l-8.4-4.3c-0.3-0.2-0.6-0.2-1,0L1.4,7.7C0.8,7.9,0.5,8.6,0.8,9.2C0.9,9.4,1,9.6,1.2,9.7l6.2,3.7l-6.9,4.7
					c-0.5,0.4-0.7,1.1-0.3,1.6c0.1,0.2,0.3,0.3,0.5,0.4l7.7,3v22.2c0,0.5,0.3,0.9,0.7,1.1l19.7,7.4c0.3,0.1,0.5,0.1,0.8,0l19.7-7.4
					c0.4-0.2,0.7-0.6,0.7-1.1V23.1l7.6-3c0.6-0.2,0.9-0.9,0.6-1.5C58.2,18.4,58.1,18.2,57.9,18.1L57.9,18.1z M38.2,2.4l15.9,6.5
					l-5.3,3.2L32,5.5L38.2,2.4z M45.8,13.4l-16.5,6.4l-16.5-6.4l16.5-6.5L45.8,13.4z M4.3,8.9l15.9-6.5l6.2,3.1L9.6,12.1L4.3,8.9z
					 M3.6,18.8l6.1-4.1l17,6.6l-6.5,4.1L3.6,18.8z M30.3,51.1V33.4c0-0.6-0.5-1.1-1.2-1.1c-0.6,0-1.1,0.5-1.1,1.1v17.7l-17.4-6.5V24
					l9.2,3.7c0.3,0.1,0.7,0.1,1-0.1l8.3-5.3l8.3,5.3c0.3,0.2,0.7,0.2,1,0.1l9.2-3.7v20.5l0,0L30.3,51.1z M38.3,25.4l-6.5-4.1l17-6.6
					l6.1,4.1L38.3,25.4z"/>
				<path d="M29.2,54.4c-0.2,0-0.4,0-0.6-0.1L8.9,46.9c-0.6-0.2-1.1-0.9-1.1-1.5V23.5l-7.3-2.9C0.2,20.4,0,20.2-0.2,20
					c-0.5-0.7-0.3-1.8,0.4-2.3l6.2-4.2L1,10.1C0.7,10,0.4,9.7,0.3,9.4C0,8.5,0.4,7.6,1.2,7.2l18.4-7.6c0.4-0.2,0.9-0.2,1.4,0.1
					l8.2,4.1l8.2-4.1c0.4-0.2,0.9-0.2,1.4-0.1l18.4,7.6c0.3,0.1,0.6,0.4,0.8,0.7c0.2,0.4,0.3,0.8,0.2,1.2c-0.1,0.4-0.4,0.8-0.7,1
					l-5.5,3.3l5.5,3.7v0l0.8,0.5c0.3,0.2,0.5,0.4,0.6,0.8c0.3,0.8-0.1,1.8-0.9,2.1l-7.3,2.9v21.9c0,0.7-0.4,1.3-1.1,1.5l-19.7,7.4
					C29.6,54.4,29.4,54.4,29.2,54.4z M20.3,0.5c-0.1,0-0.2,0-0.2,0L1.6,8.2C1.3,8.3,1.1,8.7,1.2,9c0.1,0.1,0.1,0.2,0.3,0.3l6.8,4.1
					l-7.5,5.1c-0.3,0.2-0.4,0.6-0.2,0.9c0.1,0.1,0.2,0.2,0.3,0.2l8,3.2v22.6c0,0.3,0.2,0.5,0.4,0.6L29,53.4c0.1,0.1,0.3,0.1,0.4,0
					L49.1,46c0.2-0.1,0.4-0.3,0.4-0.6V22.8l8-3.2c0.3-0.1,0.5-0.5,0.4-0.8c0-0.1-0.1-0.2-0.2-0.3l-7.6-5.1l6.8-4.1
					c0.1-0.1,0.2-0.2,0.3-0.4c0-0.2,0-0.3-0.1-0.5c-0.1-0.1-0.2-0.2-0.3-0.3L38.4,0.6c-0.2-0.1-0.4-0.1-0.5,0l-8.6,4.4l-8.6-4.4
					C20.5,0.5,20.4,0.5,20.3,0.5z M29.8,51.8V33.4c0-0.3-0.3-0.6-0.7-0.6c-0.3,0-0.6,0.3-0.6,0.6v18.4l-18.4-6.9V23.3l9.9,3.9
					c0.2,0.1,0.4,0.1,0.6-0.1l8.6-5.4l8.6,5.4c0.2,0.1,0.4,0.1,0.6,0.1l9.9-3.9v21.6L29.8,51.8z M11.1,44.2l16.4,6.2v-17
					c0-0.9,0.7-1.6,1.6-1.6c0.9,0,1.7,0.7,1.7,1.6v17l16.4-6.2V24.8l-8.5,3.4c-0.5,0.2-1,0.1-1.5-0.1l-8.1-5.1L21.1,28
					c-0.4,0.3-1,0.3-1.5,0.1l-8.5-3.4V44.2z M20.2,25.9l-17.7-7l7.1-4.8l18.2,7L20.2,25.9z M4.6,18.7l15.5,6.1l5.5-3.5L9.7,15.2
					L4.6,18.7z M38.2,25.9l-7.6-4.8l18.2-7l7.1,4.8L38.2,25.9z M32.8,21.3l5.5,3.5l15.5-6.1l-5.1-3.4L32.8,21.3z M29.2,20.3
					l-17.9-6.9l17.9-7l17.9,7L29.2,20.3z M14,13.4l15.2,5.8l15.2-5.8l-15.2-6L14,13.4z M9.6,12.7L3.2,8.9l17-7l7.4,3.7L9.6,12.7z
					 M5.5,9l4.2,2.5l15.5-6.1l-5-2.5L5.5,9z M48.8,12.7L30.8,5.6l7.4-3.7l17,7L48.8,12.7z M33.2,5.5l15.5,6.1L52.9,9L38.2,2.9
					L33.2,5.5z"/>
			</g>
		</g>
	</g>
</g>
</svg>
