<svg xmlns="http://www.w3.org/2000/svg" width="19.73" height="21.922" viewBox="0 0 19.73 21.922">
  <path id="Icon_material-date-range" data-name="Icon material-date-range" d="M11.077,12.865H8.884v2.192h2.192Zm4.384,0H13.269v2.192h2.192Zm4.384,0H17.653v2.192h2.192Zm2.192-7.673h-1.1V3H18.749V5.192H9.981V3H7.788V5.192h-1.1A2.182,2.182,0,0,0,4.511,7.384L4.5,22.73a2.192,2.192,0,0,0,2.192,2.192H22.038A2.2,2.2,0,0,0,24.23,22.73V7.384A2.2,2.2,0,0,0,22.038,5.192Zm0,17.538H6.692V10.673H22.038Z" transform="translate(-4.5 -3)"/>
</svg>
