<svg xmlns="http://www.w3.org/2000/svg" width="22" height="25.666" viewBox="0 0 22 25.666">
  <path id="Icon_metro-file-excel" data-name="Icon metro-file-excel" d="M23.6,7.646a3.333,3.333,0,0,1,.688,1.089A3.305,3.305,0,0,1,24.57,10v16.5A1.369,1.369,0,0,1,23.2,27.87H3.946a1.369,1.369,0,0,1-1.375-1.375V3.578A1.369,1.369,0,0,1,3.946,2.2H16.779a3.306,3.306,0,0,1,1.26.286,3.333,3.333,0,0,1,1.089.687ZM17.237,4.151V9.537h5.385a1.565,1.565,0,0,0-.315-.587L17.824,4.466a1.564,1.564,0,0,0-.587-.315Zm5.5,21.885V11.37H16.779A1.369,1.369,0,0,1,15.4,9.995V4.037H4.4v22H22.737ZM8.715,22.685V24.2H12.74V22.685H11.666l1.475-2.306a2.053,2.053,0,0,0,.143-.236q.072-.136.107-.193t.05-.057h.029a.493.493,0,0,0,.072.143.8.8,0,0,0,.064.107q.036.05.086.115l.093.122,1.533,2.306H14.229V24.2H18.4V22.685h-.974l-2.75-3.91,2.793-4.039h.96V13.2h-4v1.533h1.06l-1.475,2.277q-.057.1-.143.236t-.129.193l-.029.043h-.029a.493.493,0,0,0-.072-.143,1.709,1.709,0,0,0-.243-.329l-1.518-2.277H12.94V13.2H8.787v1.533h.974l2.707,3.9L9.689,22.685H8.715Z" transform="translate(-2.571 -2.204)"/>
</svg>
