<svg xmlns="http://www.w3.org/2000/svg" width="32.044" height="29.328" viewBox="0 0 32.044 29.328">
  <g id="shopping-cart_3_" data-name="shopping-cart (3)" transform="translate(0 -21.705)">
    <g id="Grupo_689" data-name="Grupo 689" transform="translate(21.376 43.041)">
      <g id="Grupo_688" data-name="Grupo 688">
        <path id="Caminho_82" data-name="Caminho 82" d="M345.543,362.612a4,4,0,1,0,4,4A4,4,0,0,0,345.543,362.612Zm0,5.594a1.6,1.6,0,1,1,1.6-1.6A1.6,1.6,0,0,1,345.543,368.206Z" transform="translate(-341.547 -362.612)"/>
      </g>
    </g>
    <g id="Grupo_691" data-name="Grupo 691" transform="translate(0 21.705)">
      <g id="Grupo_690" data-name="Grupo 690">
        <path id="Caminho_83" data-name="Caminho 83" d="M31.79,27.6a1.2,1.2,0,0,0-.944-.46H7.4L6.32,22.625a1.2,1.2,0,0,0-1.166-.92H1.2a1.2,1.2,0,1,0,0,2.4h3.01L8.1,40.4a1.2,1.2,0,0,0,1.166.92H27.929a1.2,1.2,0,0,0,1.163-.91L32.01,28.626A1.2,1.2,0,0,0,31.79,27.6Zm-4.8,11.327H10.216L7.972,29.536H29.314Z" transform="translate(0 -21.705)"/>
      </g>
    </g>
    <g id="Grupo_693" data-name="Grupo 693" transform="translate(6.872 43.041)">
      <g id="Grupo_692" data-name="Grupo 692">
        <path id="Caminho_84" data-name="Caminho 84" d="M113.8,362.612a4,4,0,1,0,4,4A4,4,0,0,0,113.8,362.612Zm0,5.594a1.6,1.6,0,1,1,1.6-1.6A1.6,1.6,0,0,1,113.8,368.206Z" transform="translate(-109.806 -362.612)"/>
      </g>
    </g>
  </g>
</svg>
