<svg id="user" xmlns="http://www.w3.org/2000/svg" width="30.752" height="30.752" viewBox="0 0 30.752 30.752">
  <g id="Grupo_695" data-name="Grupo 695">
    <g id="Grupo_694" data-name="Grupo 694">
      <path id="Caminho_85" data-name="Caminho 85" d="M15.376,0A15.376,15.376,0,1,0,30.752,15.376,15.394,15.394,0,0,0,15.376,0Zm0,28.318A12.942,12.942,0,1,1,28.318,15.377,12.957,12.957,0,0,1,15.376,28.318Z"/>
    </g>
  </g>
  <g id="Grupo_697" data-name="Grupo 697" transform="translate(3.984 18.105)">
    <g id="Grupo_696" data-name="Grupo 696">
      <path id="Caminho_86" data-name="Caminho 86" d="M77.722,301.425c-4.324,0-8.37,2.168-11.392,6.105l1.931,1.482c2.551-3.323,5.911-5.153,9.461-5.153s6.91,1.83,9.461,5.153l1.931-1.482C86.092,303.593,82.047,301.425,77.722,301.425Z" transform="translate(-66.33 -301.425)"/>
    </g>
  </g>
  <g id="Grupo_699" data-name="Grupo 699" transform="translate(9.047 5.518)">
    <g id="Grupo_698" data-name="Grupo 698">
      <path id="Caminho_87" data-name="Caminho 87" d="M156.957,91.863a6.37,6.37,0,1,0,6.329,6.37A6.357,6.357,0,0,0,156.957,91.863Zm0,10.3a3.936,3.936,0,1,1,3.895-3.935A3.92,3.92,0,0,1,156.957,102.168Z" transform="translate(-150.628 -91.863)"/>
    </g>
  </g>
</svg>
