<svg id="checked" xmlns="http://www.w3.org/2000/svg" width="22.579" height="22.579" viewBox="0 0 22.579 22.579">
  <g id="Grupo_746" data-name="Grupo 746" transform="translate(5.361 2.837)">
    <g id="Grupo_745" data-name="Grupo 745">
      <path id="Caminho_104" data-name="Caminho 104" d="M138.14,64.577a.851.851,0,0,0-1.2,0L126.728,74.758l-3.683-4a.851.851,0,0,0-1.252,1.153l4.283,4.652a.85.85,0,0,0,.608.274h.018a.852.852,0,0,0,.6-.248l10.836-10.807A.851.851,0,0,0,138.14,64.577Z" transform="translate(-121.568 -64.327)"/>
    </g>
  </g>
  <g id="Grupo_748" data-name="Grupo 748">
    <g id="Grupo_747" data-name="Grupo 747">
      <path id="Caminho_105" data-name="Caminho 105" d="M21.728,10.439a.851.851,0,0,0-.851.851A9.588,9.588,0,1,1,11.29,1.7a.851.851,0,1,0,0-1.7,11.29,11.29,0,1,0,11.29,11.29A.851.851,0,0,0,21.728,10.439Z"/>
    </g>
  </g>
</svg>
