<svg xmlns="http://www.w3.org/2000/svg" width="48" height="46.769" viewBox="0 0 48 46.769">
  <g id="box" transform="translate(0 -6.564)">
    <g id="Grupo_708" data-name="Grupo 708" transform="translate(0 6.564)">
      <g id="Grupo_707" data-name="Grupo 707" transform="translate(0 0)">
        <path id="Caminho_89" data-name="Caminho 89" d="M47.876,21.372,42.282,7.61a1.679,1.679,0,0,0-1.555-1.046H7.273A1.679,1.679,0,0,0,5.718,7.61L.124,21.372A1.679,1.679,0,0,0,0,22v29.65a1.678,1.678,0,0,0,1.678,1.678H46.322A1.678,1.678,0,0,0,48,51.655V22A1.679,1.679,0,0,0,47.876,21.372Zm-3.233,28.6H3.357V22.333L8.4,9.921H39.6l5.046,12.412Z" transform="translate(0 -6.564)" fill="#fff"/>
      </g>
    </g>
    <g id="Grupo_710" data-name="Grupo 710" transform="translate(13.818 29.277)">
      <g id="Grupo_709" data-name="Grupo 709">
        <path id="Caminho_90" data-name="Caminho 90" d="M166.079,248.839H149.072a1.678,1.678,0,0,0,0,3.357h17.007a1.678,1.678,0,0,0,0-3.357Z" transform="translate(-147.394 -248.839)" fill="#fff"/>
      </g>
    </g>
    <g id="Grupo_712" data-name="Grupo 712" transform="translate(22.322 7.907)">
      <g id="Grupo_711" data-name="Grupo 711" transform="translate(0 0)">
        <rect id="Ret창ngulo_158" data-name="Ret창ngulo 158" width="3.357" height="13.65" fill="#fff"/>
      </g>
    </g>
    <g id="Grupo_714" data-name="Grupo 714" transform="translate(1.678 20.326)">
      <g id="Grupo_713" data-name="Grupo 713">
        <rect id="Ret창ngulo_159" data-name="Ret창ngulo 159" width="44.643" height="3.357" fill="#fff"/>
      </g>
    </g>
  </g>
</svg>
