<svg xmlns="http://www.w3.org/2000/svg" width="59.41" height="54.903" viewBox="0 0 59.41 54.903">
  <g id="package" transform="translate(0.503 -19.255)">
    <g id="Grupo_790" data-name="Grupo 790" transform="translate(0 19.762)">
      <g id="Grupo_789" data-name="Grupo 789" transform="translate(0 0)">
        <path id="Caminho_122" data-name="Caminho 122" d="M57.9,37.858l-6.889-4.65,6.157-3.727a1.141,1.141,0,0,0-.156-2.03l-18.444-7.6a1.141,1.141,0,0,0-.95.037L29.2,24.142l-8.417-4.257a1.14,1.14,0,0,0-.95-.037L1.391,27.45a1.141,1.141,0,0,0-.156,2.03l6.157,3.727L.5,37.858a1.141,1.141,0,0,0,.217,2.006L8.368,42.9V65.116a1.141,1.141,0,0,0,.739,1.068l19.694,7.4a1.136,1.136,0,0,0,.8,0l19.695-7.4a1.141,1.141,0,0,0,.739-1.068V42.9l7.648-3.039a1.141,1.141,0,0,0,.217-2.006Zm-19.719-15.7L54.055,28.7l-5.267,3.189-16.8-6.6ZM45.75,33.145,29.2,39.524,12.654,33.145l16.548-6.5ZM4.349,28.7l15.873-6.542,6.194,3.132-16.8,6.6Zm-.78,9.842,6.085-4.107L26.677,41l-6.526,4.135ZM30.343,70.87v-17.7a1.141,1.141,0,0,0-2.281,0v17.7L10.649,64.326V43.809l9.2,3.656a1.141,1.141,0,0,0,1.032-.1L29.2,42.1l8.321,5.273a1.141,1.141,0,0,0,1.032.1l9.2-3.656V64.326h0Zm7.91-25.739L31.727,41l17.024-6.562,6.085,4.107Z" transform="translate(0 -19.762)" fill="#fff" stroke="#fff" stroke-width="1"/>
      </g>
    </g>
  </g>
</svg>
