<svg id="bar-code" xmlns="http://www.w3.org/2000/svg" width="25.17" height="21.221" viewBox="0 0 25.17 21.221">
  <path id="Caminho_123" data-name="Caminho 123" d="M22.458,0H2.712A2.715,2.715,0,0,0,0,2.712v15.8a2.715,2.715,0,0,0,2.712,2.712H22.458a2.715,2.715,0,0,0,2.712-2.712V2.712A2.715,2.715,0,0,0,22.458,0ZM23.7,18.509a1.239,1.239,0,0,1-1.237,1.237H2.712a1.239,1.239,0,0,1-1.237-1.237V2.712A1.239,1.239,0,0,1,2.712,1.475H22.458A1.239,1.239,0,0,1,23.7,2.712Zm0,0"/>
  <path id="Caminho_124" data-name="Caminho 124" d="M95.967,80.336H81.029a.837.837,0,0,0,0,1.65H95.967a.837.837,0,0,0,0-1.65Zm0,0" transform="translate(-75.913 -76.422)"/>
  <path id="Caminho_125" data-name="Caminho 125" d="M97.224,160.668a.825.825,0,0,0-.825.825v8.838a.825.825,0,1,0,1.65,0v-8.838A.825.825,0,0,0,97.224,160.668Zm0,0" transform="translate(-91.695 -153.513)"/>
  <path id="Caminho_126" data-name="Caminho 126" d="M241.825,160.668a.825.825,0,0,0-.825.825v8.838a.825.825,0,1,0,1.65,0v-8.838A.825.825,0,0,0,241.825,160.668Zm0,0" transform="translate(-229.24 -153.513)"/>
  <path id="Caminho_127" data-name="Caminho 127" d="M386.427,160.668a.825.825,0,0,0-.825.825v8.838a.825.825,0,1,0,1.65,0v-8.838A.825.825,0,0,0,386.427,160.668Zm0,0" transform="translate(-366.786 -153.513)"/>
  <path id="Caminho_128" data-name="Caminho 128" d="M162.377,160.668h-.884a.825.825,0,0,0-.825.825v8.838a.825.825,0,0,0,.825.825h.884a.825.825,0,0,0,.825-.825v-8.838A.825.825,0,0,0,162.377,160.668Zm0,0" transform="translate(-152.862 -153.513)"/>
  <path id="Caminho_129" data-name="Caminho 129" d="M306.975,160.668h-.884a.825.825,0,0,0-.825.825v8.838a.825.825,0,0,0,.825.825h.884a.825.825,0,0,0,.825-.825v-8.838A.825.825,0,0,0,306.975,160.668Zm0,0" transform="translate(-290.435 -153.513)"/>
</svg>
