<svg xmlns="http://www.w3.org/2000/svg" width="22.579" height="22" viewBox="0 0 22.579 22">
  <g id="box" transform="translate(0 -6.564)">
    <g id="Grupo_708" data-name="Grupo 708" transform="translate(0 6.564)">
      <g id="Grupo_707" data-name="Grupo 707" transform="translate(0 0)">
        <path id="Caminho_89" data-name="Caminho 89" d="M22.521,13.53,19.889,7.056a.79.79,0,0,0-.731-.492H3.421a.79.79,0,0,0-.731.492L.058,13.53a.79.79,0,0,0-.058.3V27.774a.789.789,0,0,0,.789.789h21a.789.789,0,0,0,.789-.789V13.827A.79.79,0,0,0,22.521,13.53ZM21,26.985H1.579v-13L3.952,8.143H18.627L21,13.982Z" transform="translate(0 -6.564)"/>
      </g>
    </g>
    <g id="Grupo_710" data-name="Grupo 710" transform="translate(6.5 17.248)">
      <g id="Grupo_709" data-name="Grupo 709">
        <path id="Caminho_90" data-name="Caminho 90" d="M156.183,248.839h-8a.789.789,0,1,0,0,1.579h8a.789.789,0,1,0,0-1.579Z" transform="translate(-147.394 -248.839)"/>
      </g>
    </g>
    <g id="Grupo_712" data-name="Grupo 712" transform="translate(10.5 7.196)">
      <g id="Grupo_711" data-name="Grupo 711" transform="translate(0 0)">
        <rect id="Ret창ngulo_158" data-name="Ret창ngulo 158" width="1.579" height="6.421"/>
      </g>
    </g>
    <g id="Grupo_714" data-name="Grupo 714" transform="translate(0.789 13.038)">
      <g id="Grupo_713" data-name="Grupo 713">
        <rect id="Ret창ngulo_159" data-name="Ret창ngulo 159" width="21" height="1.579"/>
      </g>
    </g>
  </g>
</svg>
