<svg xmlns="http://www.w3.org/2000/svg" width="18.75" height="15" viewBox="0 0 18.75 15">
  <path id="Icon_awesome-eye-slash" data-name="Icon awesome-eye-slash" d="M9.375,11.718a4.2,4.2,0,0,1-4.186-3.9L2.115,5.444A9.764,9.764,0,0,0,1.039,7.072a.948.948,0,0,0,0,.855,9.4,9.4,0,0,0,8.335,5.2,9.1,9.1,0,0,0,2.282-.306l-1.52-1.176a4.223,4.223,0,0,1-.762.076Zm9.194,1.7-3.239-2.5a9.7,9.7,0,0,0,2.38-2.99.948.948,0,0,0,0-.855,9.4,9.4,0,0,0-8.335-5.2,9.028,9.028,0,0,0-4.316,1.1L1.332.1A.469.469,0,0,0,.674.181L.1.921a.469.469,0,0,0,.082.658L17.418,14.9a.469.469,0,0,0,.658-.082l.575-.74a.469.469,0,0,0-.083-.658ZM13.186,9.26l-1.151-.89A2.776,2.776,0,0,0,8.633,4.8a1.4,1.4,0,0,1,.273.826,1.366,1.366,0,0,1-.045.293L6.7,4.251a4.169,4.169,0,0,1,2.67-.97A4.216,4.216,0,0,1,13.594,7.5a4.119,4.119,0,0,1-.407,1.761Z" transform="translate(0 0)"/>
</svg>
