<svg xmlns="http://www.w3.org/2000/svg" width="19.759" height="19.755" viewBox="0 0 19.759 19.755">
  <path id="Icon_awesome-instagram" data-name="Icon awesome-instagram" d="M9.877,7.05a5.065,5.065,0,1,0,5.065,5.065A5.057,5.057,0,0,0,9.877,7.05Zm0,8.358a3.293,3.293,0,1,1,3.293-3.293A3.3,3.3,0,0,1,9.877,15.408ZM16.33,6.843a1.181,1.181,0,1,1-1.181-1.181A1.179,1.179,0,0,1,16.33,6.843Zm3.355,1.2a5.846,5.846,0,0,0-1.6-4.139,5.885,5.885,0,0,0-4.139-1.6c-1.631-.093-6.52-.093-8.151,0A5.876,5.876,0,0,0,1.66,3.9a5.865,5.865,0,0,0-1.6,4.139c-.093,1.631-.093,6.52,0,8.151a5.846,5.846,0,0,0,1.6,4.139,5.892,5.892,0,0,0,4.139,1.6c1.631.093,6.52.093,8.151,0a5.846,5.846,0,0,0,4.139-1.6,5.885,5.885,0,0,0,1.6-4.139c.093-1.631.093-6.515,0-8.146Zm-2.107,9.9A3.334,3.334,0,0,1,15.7,19.816c-1.3.516-4.386.4-5.823.4s-4.527.115-5.823-.4a3.334,3.334,0,0,1-1.878-1.878c-.516-1.3-.4-4.386-.4-5.823s-.115-4.527.4-5.823A3.334,3.334,0,0,1,4.053,4.414c1.3-.516,4.386-.4,5.823-.4s4.527-.115,5.823.4a3.334,3.334,0,0,1,1.878,1.878c.516,1.3.4,4.386.4,5.823S18.093,16.642,17.577,17.938Z" transform="translate(0.005 -2.238)"/>
</svg>
