<?xml version="1.0" encoding="utf-8"?>
<!-- Generator: Adobe Illustrator 24.1.1, SVG Export Plug-In . SVG Version: 6.00 Build 0)  -->
<svg version="1.1" id="Camada_1" xmlns="http://www.w3.org/2000/svg" xmlns:xlink="http://www.w3.org/1999/xlink" x="0px" y="0px"
	 viewBox="0 0 25.5 26" style="enable-background:new 0 0 25.5 26;" xml:space="preserve">
<g id="Icon_feather-search" transform="translate(1.5 1.5)">
	<g id="Caminho_10">
		<path d="M8.8,19.1c-5.7,0-10.3-4.6-10.3-10.3c0-5.7,4.6-10.3,10.3-10.3c5.7,0,10.3,4.6,10.3,10.3C19.1,14.4,14.4,19.1,8.8,19.1z
			 M8.8,1.5c-4,0-7.3,3.3-7.3,7.3s3.3,7.3,7.3,7.3s7.3-3.3,7.3-7.3S12.8,1.5,8.8,1.5z"/>
	</g>
	<g id="Caminho_11">
		<path d="M21.9,23.9c-0.4,0-0.8-0.2-1.1-0.5L13.9,16c-0.6-0.6-0.5-1.6,0.1-2.1s1.6-0.5,2.1,0.1l6.9,7.4c0.6,0.6,0.5,1.6-0.1,2.1
			C22.6,23.7,22.2,23.9,21.9,23.9z"/>
	</g>
</g>
</svg>
