<svg xmlns="http://www.w3.org/2000/svg" width="22.579" height="18.859" viewBox="0 0 22.579 18.859">
  <g id="shopping-basket" transform="translate(0 -42.184)">
    <g id="Grupo_736" data-name="Grupo 736" transform="translate(1.541 48.928)">
      <g id="Grupo_735" data-name="Grupo 735" transform="translate(0 0)">
        <path id="Caminho_99" data-name="Caminho 99" d="M52.942,195.11,51.017,205.7H38.379L36.454,195.11l-1.5.273L36.989,206.6a.765.765,0,0,0,.752.628H51.655a.764.764,0,0,0,.752-.628l2.039-11.213Z" transform="translate(-34.95 -195.11)"/>
      </g>
    </g>
    <g id="Grupo_738" data-name="Grupo 738" transform="translate(0 48.3)">
      <g id="Grupo_737" data-name="Grupo 737">
        <path id="Caminho_100" data-name="Caminho 100" d="M21.815,180.877H.765a.765.765,0,1,0,0,1.529h21.05a.765.765,0,0,0,0-1.529Z" transform="translate(0 -180.877)"/>
      </g>
    </g>
    <g id="Grupo_740" data-name="Grupo 740" transform="translate(13.838 42.184)">
      <g id="Grupo_739" data-name="Grupo 739" transform="translate(0 0)">
        <path id="Caminho_101" data-name="Caminho 101" d="M319.434,48.631l-4.256-6.116a.765.765,0,0,0-1.255.873l4.256,6.116a.765.765,0,0,0,1.255-.873Z" transform="translate(-313.786 -42.187)"/>
      </g>
    </g>
    <g id="Grupo_742" data-name="Grupo 742" transform="translate(3.313 42.184)">
      <g id="Grupo_741" data-name="Grupo 741" transform="translate(0 0)">
        <path id="Caminho_102" data-name="Caminho 102" d="M80.583,42.321a.764.764,0,0,0-1.064.191l-4.256,6.116a.765.765,0,1,0,1.255.873l4.256-6.116A.765.765,0,0,0,80.583,42.321Z" transform="translate(-75.126 -42.184)"/>
      </g>
    </g>
    <g id="Grupo_744" data-name="Grupo 744" transform="translate(7.212 51.358)">
      <g id="Grupo_743" data-name="Grupo 743" transform="translate(0 0)">
        <path id="Caminho_103" data-name="Caminho 103" d="M171.447,250.45a.764.764,0,0,0-1.081-.01l-3.637,3.569-1.912-1.753a.765.765,0,0,0-1.033,1.127l2.446,2.243a.765.765,0,0,0,1.053-.018l4.154-4.078A.764.764,0,0,0,171.447,250.45Z" transform="translate(-163.536 -250.221)"/>
      </g>
    </g>
  </g>
</svg>
