<?xml version="1.0" encoding="utf-8"?>
<!-- Generator: Adobe Illustrator 24.1.1, SVG Export Plug-In . SVG Version: 6.00 Build 0)  -->
<svg version="1.1" id="Camada_1" xmlns="http://www.w3.org/2000/svg" xmlns:xlink="http://www.w3.org/1999/xlink" x="0px" y="0px"
	 viewBox="0 0 24.5 27" style="enable-background:new 0 0 24.5 27;" xml:space="preserve">
<g id="Icon_feather-trash-2" transform="translate(-3.5 -2)">
	<g id="Caminho_69">
		<path d="M27,9H4.5c-0.6,0-1-0.4-1-1s0.4-1,1-1H27c0.6,0,1,0.4,1,1S27.5,9,27,9z"/>
	</g>
	<g id="Caminho_70">
		<path d="M22,29H9.5C7.6,29,6,27.4,6,25.5V8c0-0.6,0.4-1,1-1s1,0.4,1,1v17.5C8,26.3,8.7,27,9.5,27H22c0.8,0,1.5-0.7,1.5-1.5V8
			c0-0.6,0.4-1,1-1s1,0.4,1,1v17.5C25.5,27.4,23.9,29,22,29z M20.7,9c-0.6,0-1-0.4-1-1V5.5c0-0.8-0.7-1.5-1.5-1.5h-5
			c-0.8,0-1.5,0.7-1.5,1.5V8c0,0.6-0.4,1-1,1s-1-0.4-1-1V5.5c0-1.9,1.6-3.5,3.5-3.5h5c1.9,0,3.5,1.6,3.5,3.5V8
			C21.7,8.6,21.3,9,20.7,9z"/>
	</g>
	<g id="Caminho_71">
		<path d="M13.2,22.7c-0.6,0-1-0.4-1-1v-7.5c0-0.6,0.4-1,1-1s1,0.4,1,1v7.5C14.2,22.3,13.8,22.7,13.2,22.7z"/>
	</g>
	<g id="Caminho_72">
		<path d="M18.2,22.7c-0.6,0-1-0.4-1-1v-7.5c0-0.6,0.4-1,1-1s1,0.4,1,1v7.5C19.2,22.3,18.8,22.7,18.2,22.7z"/>
	</g>
</g>
</svg>
