<?xml version="1.0" encoding="utf-8"?>
<!-- Generator: Adobe Illustrator 24.1.1, SVG Export Plug-In . SVG Version: 6.00 Build 0)  -->
<svg version="1.1" id="Camada_1" xmlns="http://www.w3.org/2000/svg" xmlns:xlink="http://www.w3.org/1999/xlink" x="0px" y="0px"
	 viewBox="0 0 62.7 52" style="enable-background:new 0 0 62.7 52;" xml:space="preserve">
<g id="Icon_feather-truck" transform="translate(0.5 -2.5)">
	<g id="Caminho_162">
		<path d="M41.5,41.2h-40c-1.1,0-2-0.9-2-2V4.5c0-1.1,0.9-2,2-2h40c1.1,0,2,0.9,2,2v34.7C43.5,40.3,42.6,41.2,41.5,41.2z M3.5,37.2
			h36V6.5h-36V37.2z"/>
	</g>
	<g id="Caminho_163">
		<path d="M60.2,41.2H41.5c-1.1,0-2-0.9-2-2V17.8c0-1.1,0.9-2,2-2h10.7c0.5,0,1,0.2,1.4,0.6l8,8c0.4,0.4,0.6,0.9,0.6,1.4v13.3
			C62.2,40.3,61.3,41.2,60.2,41.2z M43.5,37.2h14.7V26.7l-6.8-6.8h-7.8V37.2z"/>
	</g>
	<g id="Caminho_164">
		<path d="M13.5,54.5c-4.8,0-8.7-3.9-8.7-8.7s3.9-8.7,8.7-8.7c4.8,0,8.7,3.9,8.7,8.7h0C22.2,50.6,18.3,54.5,13.5,54.5z M13.5,41.2
			c-2.6,0-4.7,2.1-4.7,4.7s2.1,4.7,4.7,4.7s4.7-2.1,4.7-4.7c0,0,0,0,0,0c0-1.2-0.5-2.4-1.4-3.3C15.9,41.7,14.7,41.2,13.5,41.2z"/>
	</g>
	<g id="Caminho_165">
		<path d="M48.2,54.5c-4.8,0-8.7-3.9-8.7-8.7s3.9-8.7,8.7-8.7s8.7,3.9,8.7,8.7h0C56.8,50.6,52.9,54.5,48.2,54.5z M48.2,41.2
			c-2.6,0-4.7,2.1-4.7,4.7s2.1,4.7,4.7,4.7s4.7-2.1,4.7-4.7c0,0,0,0,0,0c0-1.2-0.5-2.4-1.4-3.3C50.6,41.7,49.4,41.2,48.2,41.2z"/>
	</g>
</g>
</svg>
